# xmcd
#
# Track frame offsets: 
#        150
#        10950
#        23060
#        35031
#        45341
#        57718
#        68670
#        77869
#        87152
#        98800
#        108258
#        117238
#        128860
#        139477
#        150473
#        162299
#        175473
#        185346
#        198328
#        208336
#        217474
#        229083
#        238127
#        249250
#        258586
#        271752
#        282366
#        293238
#        302521
#        312747
#
# Disc length: 4293 seconds
#
# Revision: 2
# Processed by: cddbd v1.5.2PL0 Copyright (c) Steve Scherf et al.
# Submitted via: ExactAudioCopyFreeDBPlugin 1.0
#
DISCID=c110c31e
DTITLE=Waylon Jennings - The Journey - Destiny's Child - Vol. 3
DYEAR=1999
DGENRE=Country
TTITLE0=I Wonder Just Where I Went Wrong
TTITLE1=Another Bridge To Burn
TTITLE2=Now Everybody Knows
TTITLE3=Down Came The World
TTITLE4=I'm A Man Of Constant Sorrow
TTITLE5=Dream Baby (How Long Must I Dream)
TTITLE6=Time Will Tell The Story
TTITLE7=Stop The World (And Let Me Off)
TTITLE8=The Dark Side Of Fame
TTITLE9=That's The Chance I'll Have To Take
TTITLE10=Cindy Of New Orleans
TTITLE11=What's Left Of Me
TTITLE12=Look Into My Teardrops
TTITLE13=Anita, You're Dreaming
TTITLE14=What Makes A Man Wander
TTITLE15=I Don't Mind
TTITLE16=Just For You
TTITLE17=Baby, Don't Be Looking In My Mind
TTITLE18=My World
TTITLE19=Time To Burn Again
TTITLE20=Falling For You
TTITLE21=If You Really Want Me To I'll Go
TTITLE22=(That's What You Get) For Lovin' Me
TTITLE23=But That's Alright
TTITLE24=Doesn't Anybody Know My Name
TTITLE25=Taos, New Mexico
TTITLE26=You're Gonna Wonder About Me
TTITLE27=Norwegian Wood
TTITLE28=I Tremble For You
TTITLE29=Leavin' Town
EXTD=
EXTT0=
EXTT1=
EXTT2=
EXTT3=
EXTT4=
EXTT5=
EXTT6=
EXTT7=
EXTT8=
EXTT9=
EXTT10=
EXTT11=
EXTT12=
EXTT13=
EXTT14=
EXTT15=
EXTT16=
EXTT17=
EXTT18=
EXTT19=
EXTT20=
EXTT21=
EXTT22=
EXTT23=
EXTT24=
EXTT25=
EXTT26=
EXTT27=
EXTT28=
EXTT29=
PLAYORDER=
